[Header]
FileType HTR
DataType HTRS
FileVersion 1
NumSegments 22
NumFrames 4
DataFrameRate 24
EulerRotationOrder ZYX
CalibrationUnits mm
RotationUnits Degrees
GlobalAxisofGravity Y
BoneLengthAxis Y
ScaleFactor 1.0
[SegmentNames&Hierarchy]
reference	GLOBAL
Hips	reference
Spine	Hips
Spine1	Spine
Neck	Spine1
Head	Neck
LeftShoulder	Spine1
LeftArm	LeftShoulder
LeftForeArm	LeftArm
LeftHand	LeftForeArm
RightShoulder	Spine1
RightArm	RightShoulder
RightForeArm	RightArm
RightHand	RightForeArm
LeftUpLeg	Hips
LeftLeg	LeftUpLeg
LeftFoot	LeftLeg
LeftToeBase	LeftFoot
RightUpLeg	Hips
RightLeg	RightUpLeg
RightFoot	RightLeg
RightToeBase	RightFoot
[BasePosition]
reference	0	0	0	0	0	0	1
Hips	0	0	0	0	0	0	1
Spine	0	0	0	0	-0	90	1
Spine1	0	0	0	0	0	0	1
Neck	0	0	0	-7.352327771	-7.352327771	90	1
Head	0	0	0	0	-0	90	1
LeftShoulder	0	0	0	0	0	0	1
LeftArm	0	0	0	0	0	0	1
LeftForeArm	0	0	0	0	0	0	1
LeftHand	0	0	0	0	0	0	1
RightShoulder	0	0	0	0	-0	180	1
RightArm	0	0	0	0	-0	180	1
RightForeArm	0	0	0	0	-0	180	1
RightHand	0	0	0	0	-0	180	1
LeftUpLeg	0	0	0	0	-0	-90	1
LeftLeg	0	0	0	0	-0	-90	1
LeftFoot	0	0	0	66.57146043	-66.57146043	-90	1
LeftToeBase	0	0	0	0	-90	0	1
RightUpLeg	0	0	0	0	-0	-90	1
RightLeg	0	0	0	0	-0	-90	1
RightFoot	0	0	0	66.57146043	-66.57146043	-90	1
RightToeBase	0	0	0	0	-90	0	1
[reference]
46	0	0	0	0	-0	0	1.0
47	0	0	0	0	-0	0	1.0
48	0	0	0	0	-0	0	1.0
49	0	0	0	0	-0	0	1.0
[Hips]
46	2.256925583	8.328791618	1.901515961	27.6724205	-83.55352783	-25.63116074	1.0
47	2.011182547	8.273456573	2.020168066	37.14610672	-83.30337524	-34.63594437	1.0
48	1.755956292	8.261585236	2.17343998	32.32315063	-82.55475616	-29.14370155	1.0
49	1.485850096	8.250785828	2.341530085	19.26702881	-81.73204041	-15.85309124	1.0
[Spine]
46	0	0.7457100153	0	-6.262231827	0.09598404169	-88.66357422	1.0
47	0	0.7457100153	0	-7.134100914	0.2174491435	-88.16285706	1.0
48	0	0.7457100153	0	-7.779712677	-0.230525285	-88.9425354	1.0
49	0	0.7457100153	0	-7.754669666	-0.3105656803	-90.68664551	1.0
[Spine1]
46	0	2.140589952	0	6.789339542	-0.05112760141	1.023834229	1.0
47	0	2.140589952	0	7.425332069	-0.1029633507	1.927432299	1.0
48	0	2.140589952	0	7.819471359	-0.2594458163	2.468583107	1.0
49	0	2.140589952	0	7.081739426	-0.2617002428	2.760401249	1.0
[Neck]
46	0	2.32246995	0	-13.85358334	16.26006317	-91.93849182	1.0
47	0	2.32246995	0	-15.02569675	16.37888336	-92.79020691	1.0
48	0	2.32246995	0	-15.44068336	16.30150604	-92.91911316	1.0
49	0	2.32246995	0	-14.89630604	15.95457268	-92.11787415	1.0
[Head]
46	0	1.409579992	0.1818799973	-4.56625843	9.601462364	-92.74951935	1.0
47	0	1.409579992	0.1818799973	-4.436630249	9.829896927	-92.8865509	1.0
48	0	1.409579992	0.1818799973	-4.410379887	9.806932449	-93.26274872	1.0
49	0	1.409579992	0.1818799973	-3.839423656	9.465268135	-93.91194916	1.0
[LeftShoulder]
46	0.3668199778	1.946700096	-0.02662999928	-19.21504593	-13.5247364	-0.9806728363	1.0
47	0.3668199778	1.946700096	-0.02662999928	-18.74712372	-13.42874813	-1.349443316	1.0
48	0.3668199778	1.946700096	-0.02662999928	-18.18112755	-13.69896984	-1.912361622	1.0
49	0.3668199778	1.946700096	-0.02662999928	-18.18273354	-13.49901962	-1.623170376	1.0
[LeftArm]
46	1.140689969	0	0	57.78148651	0.09219052643	-71.59341431	1.0
47	1.140689969	0	0	56.98902512	0.3371251822	-72.64020538	1.0
48	1.140689969	0	0	56.58795166	1.369042516	-74.09030151	1.0
49	1.140689969	0	0	56.11377335	3.9446311	-77.42094421	1.0
[LeftForeArm]
46	2.749800205	0	0	-1.748955607	-66.44691467	2.147454977	1.0
47	2.749800205	0	0	-3.363117218	-64.93691254	3.114266634	1.0
48	2.749800205	0	0	-4.70223999	-59.10847092	5.169308662	1.0
49	2.749800205	0	0	-6.471782207	-49.13118744	6.635443211	1.0
[LeftHand]
46	2.295179844	0	0	0.1434776485	-14.41140366	-3.850839376	1.0
47	2.295179844	0	0	-0.6602936387	-14.94521904	-5.50082159	1.0
48	2.295179844	0	0	-0.8646164536	-14.60301399	-7.064112186	1.0
49	2.295179844	0	0	-2.792199135	-14.6457119	-5.01277113	1.0
[RightShoulder]
46	-0.3601199985	1.946700096	-0.02662999928	-4.384912968	2.891320229	172.6318054	1.0
47	-0.3601199985	1.946700096	-0.02662999928	-4.328104496	2.913488865	172.9270935	1.0
48	-0.3601199985	1.946700096	-0.02662999928	-4.628170013	2.538804054	173.2632446	1.0
49	-0.3601199985	1.946700096	-0.02662999928	-4.351777077	2.428283453	173.6520386	1.0
[RightArm]
46	-1.140689969	0	0	20.58839417	-11.48233795	-107.6006546	1.0
47	-1.140689969	0	0	19.49093246	-11.24544144	-107.5970459	1.0
48	-1.140689969	0	0	19.83179474	-10.65592384	-106.5774689	1.0
49	-1.140689969	0	0	20.94487381	-10.40895557	-104.5898132	1.0
[RightForeArm]
46	-2.749800205	0	0	8.852689743	7.799450397	187.8851013	1.0
47	-2.749800205	0	0	8.509080887	4.898030281	188.0036316	1.0
48	-2.749800205	0	0	7.30749464	1.72282362	187.6152344	1.0
49	-2.749800205	0	0	4.778233051	0.9482336044	186.8968506	1.0
[RightHand]
46	-2.295179844	0	0	8.161897659	5.045379639	176.5413361	1.0
47	-2.295179844	0	0	8.060466766	3.699658155	176.716156	1.0
48	-2.295179844	0	0	7.140937805	1.546045661	176.1381226	1.0
49	-2.295179844	0	0	4.705440521	0.6248679757	177.0923615	1.0
[LeftUpLeg]
46	0.9094099998	0	0	-14.05526066	2.344350338	96.62916565	1.0
47	0.9094099998	0	0	-18.12825775	1.668409348	98.29817963	1.0
48	0.9094099998	0	0	-22.57563019	3.571202517	95.63999176	1.0
49	0.9094099998	0	0	-25.54810333	3.050230265	93.14570618	1.0
[LeftLeg]
46	0	-4.498080254	0	-1.45714736	3.929754257	87.67059326	1.0
47	0	-4.498080254	0	8.599107742	1.16973114	85.60662842	1.0
48	0	-4.498080254	0	19.78719521	-3.0478549	85.54766846	1.0
49	0	-4.498080254	0	30.42360306	-8.526184082	81.76963043	1.0
[LeftFoot]
46	0	-3.729400158	0	-66.08478546	99.26371765	-21.59355927	1.0
47	0	-3.729400158	0	-66.53600311	107.0560913	-17.38596725	1.0
48	0	-3.729400158	0	-81.94923401	114.0640106	-29.25037003	1.0
49	0	-3.729400158	0	-75.98257446	116.7192383	-20.62240601	1.0
[LeftToeBase]
46	0	-0.5911099911	1.364109993	0	0	0	1.0
47	0	-0.5911099911	1.364109993	0	0	0	1.0
48	0	-0.5911099911	1.364109993	0	0	0	1.0
49	0	-0.5911099911	1.364109993	0	0	0	1.0
[RightUpLeg]
46	-0.9094099998	0	0	5.621732712	1.670633316	92.22446442	1.0
47	-0.9094099998	0	0	6.537777901	1.737750053	92.29399109	1.0
48	-0.9094099998	0	0	7.704713821	0.2071541548	91.85915375	1.0
49	-0.9094099998	0	0	9.172964096	-2.59358716	90.23893738	1.0
[RightLeg]
46	0	-4.498080254	0	5.340459824	5.523131371	93.75828552	1.0
47	0	-4.498080254	0	5.631086349	6.080800056	94.14876556	1.0
48	0	-4.498080254	0	6.600349903	4.173734188	92.67303467	1.0
49	0	-4.498080254	0	7.929039955	0.3940950632	90.54314423	1.0
[RightFoot]
46	0	-3.729400158	0	24.10876274	65.47950745	79.55041504	1.0
47	0	-3.729400158	0	23.17886925	64.56039429	80.95959473	1.0
48	0	-3.729400158	0	29.10280228	64.18083191	88.31461334	1.0
49	0	-3.729400158	0	41.21417618	63.34008408	101.056282	1.0
[RightToeBase]
46	0	-0.5911099911	1.364109993	0	0	0	1.0
47	0	-0.5911099911	1.364109993	0	0	0	1.0
48	0	-0.5911099911	1.364109993	0	0	0	1.0
49	0	-0.5911099911	1.364109993	0	0	0	1.0
[EndOfFile]
